<svg width="38" height="24" viewBox="0 0 38 24" fill="none" xmlns="http://www.w3.org/2000/svg">
<path fill-rule="evenodd" clip-rule="evenodd" d="M23.2346 12.8433V1.17065H1.29419V10.2046L2.11812 8.35133H3.51007L3.97354 9.4455V8.35133H5.67446L6.18942 9.4455L6.6919 8.35133H12.6951C12.9276 8.35133 13.249 8.42926 13.391 8.68644V8.35133H14.6535V8.75034C14.808 8.53213 15.053 8.35133 15.543 8.35133H18.1068L18.5703 9.419V8.35133H20.0902L20.6176 9.27716V8.35133H22.0096V11.7741H20.5147L19.8967 10.7579V11.7741H18.0023L17.7058 11.1055H17.1003L16.8163 11.7741H15.6303C15.3729 11.7492 14.7799 11.6463 14.6519 11.2473V11.7741H12.3736V11.015C12.3736 10.9122 12.2706 10.7828 12.1411 10.7828H11.8961V11.7741H7.05237V11.0026L6.67941 11.7741H5.70099L5.32804 10.9886V11.7741H3.38055L3.12307 11.1569H2.50512L2.23516 11.7741H1.29419V22.8031H23.2346V16.0479C23.1191 16.1773 22.9256 16.2801 22.6416 16.2801H20.8127V16.0214C20.6707 16.1757 20.4772 16.2786 20.1557 16.2786H14.989V15.5569C14.9765 15.4665 15.028 15.2733 14.7705 15.2733H14.552V16.277H13.1866V15.119C13.0446 15.3512 12.7356 15.3637 12.5297 15.3761H11.8087V16.277H9.97671L9.44771 15.6333L8.88125 16.277H5.76497V12.8402H8.93431L9.4758 13.4715L10.0423 12.8402H12.5421C12.7232 12.8527 13.0571 12.9431 13.1866 13.1239V12.8402H15.312C15.5055 12.8402 15.866 12.9306 16.0205 13.1753V12.8402H18.6998V13.1488C18.8418 12.9556 19.0603 12.8402 19.4083 12.8402H21.1217V13.1364C21.2512 12.9431 21.5851 12.8402 21.7911 12.8402H23.2346V12.8433Z" fill="url(#paint0_linear_407_297)"/>
<path fill-rule="evenodd" clip-rule="evenodd" d="M36.7109 14.9272L28.8008 22.8031H29.9212L36.7109 16.0479V14.9272Z" fill="url(#paint1_linear_407_297)"/>
<path fill-rule="evenodd" clip-rule="evenodd" d="M36.711 17.1279L31.0168 22.803H32.1373L36.711 18.247V17.1279Z" fill="url(#paint2_linear_407_297)"/>
<path fill-rule="evenodd" clip-rule="evenodd" d="M36.711 19.3289L33.2202 22.8031H34.3531L36.711 20.448V19.3289Z" fill="url(#paint3_linear_407_297)"/>
<path fill-rule="evenodd" clip-rule="evenodd" d="M19.0853 0H0.134766V24H37.9999V0H19.0853ZM37.6004 23.5745H0.571701V0.437979H37.5988L37.6004 23.5745Z" fill="url(#paint4_linear_407_297)"/>
<path fill-rule="evenodd" clip-rule="evenodd" d="M25.296 20.783C24.742 20.783 24.291 21.2209 24.291 21.7743C24.291 22.3151 24.742 22.7656 25.296 22.7656C25.8375 22.7656 26.2884 22.3151 26.2884 21.7743C26.2869 21.2272 25.8437 20.783 25.296 20.783ZM25.296 22.6487C24.806 22.6362 24.4205 22.2496 24.4205 21.7743C24.4205 21.2848 24.806 20.8983 25.296 20.8983C25.7719 20.8983 26.1589 21.2848 26.1589 21.7743C26.1589 22.2496 25.7719 22.6487 25.296 22.6487Z" fill="url(#paint5_linear_407_297)"/>
<path fill-rule="evenodd" clip-rule="evenodd" d="M25.7984 21.5031C25.7984 21.4127 25.7594 21.3223 25.683 21.2708C25.5924 21.2194 25.5019 21.2194 25.4114 21.2194H24.9214V22.326H25.0634V21.8117H25.3084L25.6299 22.326H25.7844L25.4489 21.8117C25.6439 21.8117 25.7984 21.7228 25.7984 21.5031ZM25.296 21.7088H25.0634V21.3098H25.3724C25.5144 21.3098 25.6689 21.3347 25.6689 21.5031C25.6689 21.7228 25.4504 21.7088 25.296 21.7088ZM6.17692 10.5131L5.39044 8.75024H4.373V11.2721L3.23853 8.75024H2.38807L1.24268 11.3766H1.92617L2.17116 10.7843H3.46012L3.7176 11.3766H5.01904V9.42046L5.88043 11.3766H6.47341L7.34884 9.45943V11.3766H7.99332V8.7518H6.96184L6.17692 10.5131ZM2.81408 10.2185H2.42708L2.81408 9.30512V9.33006L3.21357 10.2185H2.81408ZM13.3661 9.4454C13.3661 8.89208 12.9151 8.75024 12.5936 8.75024H10.9177V11.3766H11.5621V10.4507H12.4001C12.6326 10.4507 12.7216 10.6689 12.7216 10.8887L12.7341 11.3781H13.3661L13.3395 10.8373C13.3395 10.4133 13.2241 10.22 12.9276 10.1811C13.2756 9.99872 13.3661 9.76648 13.3661 9.4454ZM12.3611 9.90832H11.5621V9.31603H12.3611C12.6311 9.31603 12.7216 9.48281 12.7216 9.61217C12.7216 9.79298 12.6311 9.90832 12.3611 9.90832ZM13.7 11.3766H14.3445V8.7518H13.7V11.3766ZM20.9921 8.75024V10.5661L19.8967 8.7518H18.9432V11.2098L17.8353 8.7518H16.9848L16.0953 10.7843C16.0953 10.7843 15.7739 10.7843 15.7349 10.7718C15.5289 10.7469 15.2839 10.5396 15.2839 10.0766C15.2839 9.45943 15.6194 9.31759 16.0439 9.31759H16.4433V8.7518H15.6054C15.3089 8.7518 14.6644 8.97001 14.6519 10.0517C14.6269 10.7718 14.9484 11.3766 15.6693 11.3766H16.5198L16.7648 10.7843H18.0538L18.3112 11.3766H19.5861V9.45943L20.7456 11.3766H21.6351V8.7518L20.9921 8.75024ZM17.4233 10.2185H17.0238L17.4108 9.30512L17.4233 9.33006L17.8103 10.2185H17.4233ZM8.43182 11.3766H10.5447V10.8232H9.0763V10.3089H10.5073V9.807H9.0763V9.31759H10.5447V8.7518H8.43182V11.3766ZM20.0652 14.271C20.0262 14.271 19.6657 14.2585 19.6142 14.2585C19.4597 14.246 19.3427 14.2071 19.3427 14.0528C19.3427 13.7956 19.5877 13.8205 19.8187 13.8205H20.8111V13.2547H19.4457C19.0337 13.2547 18.6857 13.5259 18.6857 14.0138C18.6857 14.4502 18.8527 14.8118 19.5612 14.8243C19.6127 14.8243 19.9217 14.8367 20.0122 14.8492C20.2057 14.8742 20.2447 14.9521 20.2447 15.0674C20.2447 15.3246 19.9872 15.3246 19.8062 15.3246H18.7497V15.8779H20.1027C20.5287 15.8779 20.9266 15.6207 20.9266 15.1313C20.9282 14.7089 20.8642 14.3099 20.0652 14.271ZM22.4871 14.271C22.4481 14.271 22.0876 14.2585 22.0361 14.2585C21.8816 14.246 21.7661 14.2071 21.7661 14.0528C21.7661 13.7956 22.0111 13.8205 22.2296 13.8205H23.2221V13.2547H21.8691C21.4447 13.2547 21.0967 13.5259 21.0967 14.0138C21.0967 14.4502 21.2637 14.8118 21.9862 14.8243C22.0377 14.8243 22.3466 14.8367 22.4371 14.8492C22.6182 14.8742 22.6697 14.9521 22.6697 15.0674C22.6697 15.3246 22.3997 15.3246 22.2187 15.3246H21.1622V15.8779H22.5277C22.9521 15.8779 23.3516 15.6207 23.3516 15.1313C23.35 14.7089 23.2861 14.3099 22.4871 14.271ZM12.4641 13.2547H10.1967L9.46174 14.0652L8.74079 13.2547H6.18941V15.867H8.66277L9.43521 15.0051L10.1952 15.8795H11.4326V14.9911H12.2956C12.6311 14.9911 13.249 14.9786 13.249 14.0512C13.249 13.409 12.7856 13.2547 12.4641 13.2547ZM8.31478 15.3262H6.84637V14.7993H8.26329V14.3099H6.84637V13.8205H8.31478L9.03573 14.5281L8.31478 15.3262ZM10.7881 15.6223L10.3247 15.0815L9.86122 14.5281L10.3247 14.0263L10.7881 13.5119V15.6223ZM12.2316 14.4518H11.4326V13.8205H12.2316C12.5016 13.8205 12.5921 13.9873 12.5921 14.1167C12.5921 14.2975 12.5031 14.4518 12.2316 14.4518ZM16.0064 13.9623C16.0064 13.3966 15.5429 13.2547 15.234 13.2547H13.5455V15.8795H14.19V14.9536H15.0405C15.2589 14.9536 15.3494 15.1719 15.3619 15.4041L15.3744 15.8795H16.0064L15.9814 15.3386C15.9814 14.9147 15.866 14.7214 15.557 14.6824C15.9159 14.5157 16.0064 14.271 16.0064 13.9623ZM15.0014 14.4128H14.19V13.8205H15.0014C15.2714 13.8205 15.3619 13.9873 15.3619 14.1167C15.3619 14.2975 15.2589 14.4128 15.0014 14.4128ZM16.3294 15.867H18.4298V15.3262H16.9739V14.7993H18.3908V14.3099H16.9739V13.8205H18.4298V13.2547H16.3294V15.867ZM25.9919 13.4994C25.4504 13.4994 25.3475 13.0755 25.3475 12.625C25.3475 12.0078 25.58 11.6852 25.9404 11.6852C26.2759 11.6852 26.4944 11.8784 26.5209 12.212H27.5259C27.4494 11.389 26.8939 10.8996 25.903 10.8996C25.001 10.8996 24.2926 11.5433 24.2926 12.5861C24.2926 13.6413 24.937 14.285 26.006 14.285C26.8564 14.285 27.4619 13.7831 27.5524 12.9601H26.535C26.4944 13.2672 26.3259 13.4994 25.9919 13.4994ZM30.2052 12.7653C30.2052 12.212 30.1397 11.8005 29.0193 11.8005H28.8897C28.0658 11.8254 27.7428 12.1091 27.7428 12.5861H28.6323C28.6588 12.4193 28.7743 12.3663 28.8897 12.3663C28.9147 12.3538 28.9412 12.3538 28.9678 12.3538C29.0583 12.3538 29.2767 12.3788 29.2767 12.5471C29.2767 12.6889 29.1098 12.7279 28.8897 12.7653C28.3998 12.8417 27.6008 12.8292 27.6008 13.5633C27.6008 14.0528 27.9878 14.271 28.4388 14.271C28.6057 14.271 28.7477 14.2585 28.8897 14.2195C29.0442 14.1681 29.1862 14.0902 29.3158 13.9623L29.4187 14.2071H30.2567C30.2177 14.1167 30.2052 14.0013 30.2052 13.8595V12.7653ZM28.8897 13.7441H28.8133C28.6198 13.7441 28.5168 13.6662 28.5168 13.5509C28.5168 13.3576 28.6838 13.3186 28.8897 13.2812C29.0193 13.2547 29.1613 13.2298 29.2767 13.1784C29.2767 13.5758 29.1613 13.7176 28.8897 13.7441ZM31.2476 12.3414V11.866H30.3972V14.2071H31.3257V13.2812C31.3257 12.7793 31.5192 12.5985 31.9046 12.5985H32.0981V11.813C32.0591 11.8005 32.0076 11.8005 31.9686 11.8005C31.6081 11.8005 31.3772 11.9673 31.2476 12.3414ZM33.863 10.99V12.0967C33.7475 11.9673 33.6305 11.8909 33.49 11.8395C33.3995 11.8145 33.2841 11.8005 33.1545 11.8005C32.6006 11.8005 32.1621 12.3024 32.1621 13.0739C32.1621 13.7426 32.5225 14.271 33.231 14.271C33.3215 14.271 33.412 14.271 33.4885 14.246C33.6695 14.1946 33.7975 14.0917 33.9519 13.8984V14.2071H34.7899V10.99H33.863ZM33.49 13.6023H33.4635C33.1545 13.6023 33.103 13.3186 33.103 13.0755C33.103 12.8183 33.1795 12.5222 33.49 12.5222C33.799 12.5222 33.8895 12.8058 33.8895 13.063C33.8895 13.3186 33.799 13.5898 33.49 13.6023Z" fill="url(#paint6_linear_407_297)"/>
<defs>
<linearGradient id="paint0_linear_407_297" x1="12.2644" y1="1.17065" x2="12.2644" y2="22.8031" gradientUnits="userSpaceOnUse">
<stop stop-color="white"/>
<stop offset="1" stop-color="white" stop-opacity="0.75"/>
</linearGradient>
<linearGradient id="paint1_linear_407_297" x1="32.7558" y1="14.9272" x2="32.7558" y2="22.8031" gradientUnits="userSpaceOnUse">
<stop stop-color="white"/>
<stop offset="1" stop-color="white" stop-opacity="0.75"/>
</linearGradient>
<linearGradient id="paint2_linear_407_297" x1="33.8639" y1="17.1279" x2="33.8639" y2="22.803" gradientUnits="userSpaceOnUse">
<stop stop-color="white"/>
<stop offset="1" stop-color="white" stop-opacity="0.75"/>
</linearGradient>
<linearGradient id="paint3_linear_407_297" x1="34.9656" y1="19.3289" x2="34.9656" y2="22.8031" gradientUnits="userSpaceOnUse">
<stop stop-color="white"/>
<stop offset="1" stop-color="white" stop-opacity="0.75"/>
</linearGradient>
<linearGradient id="paint4_linear_407_297" x1="19.0673" y1="0" x2="19.0673" y2="24" gradientUnits="userSpaceOnUse">
<stop stop-color="white"/>
<stop offset="1" stop-color="white" stop-opacity="0.75"/>
</linearGradient>
<linearGradient id="paint5_linear_407_297" x1="25.2897" y1="20.783" x2="25.2897" y2="22.7656" gradientUnits="userSpaceOnUse">
<stop stop-color="white"/>
<stop offset="1" stop-color="white" stop-opacity="0.75"/>
</linearGradient>
<linearGradient id="paint6_linear_407_297" x1="18.0163" y1="8.75024" x2="18.0163" y2="22.326" gradientUnits="userSpaceOnUse">
<stop stop-color="white"/>
<stop offset="1" stop-color="white" stop-opacity="0.75"/>
</linearGradient>
</defs>
</svg>
